<svg xmlns="http://www.w3.org/2000/svg" enable-background="new 0 0 100 100" viewBox="0 0 100 100" id="Flexibility"><path d="M68.595,56.206c7.112-5.057,13.236-13.046,13.236-21.147v-6.134h11.89L73.831,6.811l-19.89,22.113h11.89v6.125
	c-0.063,1.511-3.294,6.769-8.997,9.663l-5.093,2.584l-7.728-3.922c-5.187-2.632-8.03-7.326-8.176-8.315V29.54h8.741l1.816-4.218
	L28.156,6.034h-3.633L6.28,25.322l1.816,4.218h8.741v5.519c0,8.952,6.936,17.736,14.758,22.997
	c-7.737,5.676-13.147,14.514-13.147,22.228v11.182h16V80.284c0-2.525,3.777-8.187,8.996-10.835l4.982-2.528l7.619,3.866
	c5.086,2.581,8.174,7.863,8.174,9.497v11.183l2.5,2.5h14l2.5-2.5V80.283C83.22,71.833,77.157,62.121,68.595,56.206z M78.22,88.966
	h-9v-8.683c0-3.974-4.667-10.787-10.912-13.956L37.677,55.859c-7.787-3.951-15.84-12.812-15.84-20.8l0-10.52l-7.935,0.001
	L26.34,11.39l12.434,13.15l-7.937-0.001l0,10.52c0,3.347,4.768,9.656,10.914,12.774l20.63,10.469h0
	c8.881,4.506,15.839,14.161,15.839,21.982V88.966z" fill="#2a8d86" class="color000000 svgShape"></path></svg>