<svg xmlns="http://www.w3.org/2000/svg" viewBox="0 0 32 32" id="growth"><g fill="#2a8d86" class="color000000 svgShape"><rect width="6.5" height="12.5" x="3.89" y="17.65" rx="1.83" ry="1.83" fill="#2a8d86" class="color000000 svgShape"></rect><rect width="6.5" height="16" x="12.88" y="14.15" rx="1.83" ry="1.83" fill="#2a8d86" class="color000000 svgShape"></rect><rect width="6.5" height="19.08" x="21.87" y="11.07" rx="1.83" ry="1.83" fill="#2a8d86" class="color000000 svgShape"></rect><path d="M30,6.26,28.55,1.85l-5.37.91a1,1,0,0,0-.89,1.17,1.12,1.12,0,0,0,1.32.79l1.95-.33c-2,2.13-8.28,6.43-22.61,8.74A1,1,0,0,0,2,14.28a1.13,1.13,0,0,0,1.32.82C18,12.73,24.92,8.27,27.38,5.51l.41,1.29a1.15,1.15,0,0,0,1.39.69A1,1,0,0,0,30,6.26Z" fill="#2a8d86" class="color000000 svgShape"></path></g></svg>