<svg xmlns="http://www.w3.org/2000/svg" viewBox="0 0 128 128" id="Nurses"><circle cx="63.999" cy="106.125" r="2" fill="#2a8d86" class="color000000 svgShape"></circle><path d="M43 100a2 2 0 0 0 0 4h6a2 2 0 0 0 0-4zm-29 0a2 2 0 0 0 0 4h6a2 2 0 0 0 0-4zm65.001 0a2 2 0 1 0 0 4h6a2 2 0 0 0 0-4zm29 0a2 2 0 0 0 0 4h6a2 2 0 0 0 0-4z" fill="#2a8d86" class="color000000 svgShape"></path><path d="M2 110a1.993 1.993 0 0 0 2-2v-8.8c-.01-.21-.06-5.15 7.32-9.1l8.47-4.48 6.9 6.95.01-.019a17.951 17.951 0 0 1 .935-1.646c.017-.025.035-.051.051-.077q.225-.347.475-.698c.046-.065.092-.13.14-.194.18-.247.367-.494.568-.742.014-.018.026-.036.041-.054l-5.43-5.48 2.29-1.21a5.033 5.033 0 0 0 2.55-4.23v-.58a18.986 18.986 0 0 0 2.21 1.27A10.05 10.05 0 0 0 34.89 80a8.77 8.77 0 0 0 4.06-1.03q.268-.134.566-.298c-.187-.172-.39-.33-.564-.513a5.84 5.84 0 0 1-.984-1.397l-.032-.06a6.1 6.1 0 0 1-.286-.668c-.012-.033-.029-.06-.04-.094-.02-.07-.1-.3-.21-.67-.09.05-.17.1-.26.14a4.903 4.903 0 0 1-4.87-.11c-9.04-4.35-10.83-17.12-11.19-22.1a32.328 32.328 0 0 0 14.84-3.39c.013-.059.029-.118.041-.177q.139-.639.301-1.278l.008-.032a34.47 34.47 0 0 1 1.238-3.863l.146-.301a20.806 20.806 0 0 0-1.865-.156 143.22 143.22 0 0 0-3.87.012 33.296 33.296 0 0 0-11.863 3.301 6.115 6.115 0 0 1-5.36.1 6.01 6.01 0 0 1-2.301-1.948c-5.297 13.11-.224 28.516.005 29.192a2.075 2.075 0 0 0 .45.74c2.43 2.56 7.12 3.81 9.55 4.31L9.44 86.57C.13 91.55-.02 98.41 0 99.32V108a2 2 0 0 0 2 2zm123.999 0a1.999 1.999 0 0 0 2-2v-8.682c.021-.904-.133-7.766-9.45-12.753l-13.698-7.25c4.279-1.011 7.136-2.296 8.671-3.912a1.999 1.999 0 0 0 .461-.785c.073-.233 4.693-15.711-.622-28.823a5.982 5.982 0 0 1-7.425 1.517 33.187 33.187 0 0 0-12.147-3.31c-.417-.014-3.345-.008-3.87.013a23.712 23.712 0 0 0-3.791.508c1.83 2.848 3.95 6.102 4.1 6.864a26.823 26.823 0 0 0 9.886-5.969 11.431 11.431 0 0 0 4.887 7.156c-.037 15.493-6.152 20.95-9.86 22.835a4.908 4.908 0 0 1-4.872-.107c-.399-.192-.766-.418-1.135-.641-.059.207-.119.408-.177.613-.075.268-.129.45-.148.514l-.002.004-.003.012-.022.054a6.065 6.065 0 0 1-1.37 2.31c-.03.031-.067.06-.097.09l-.002.003c.395.226.801.443 1.221.644a9.244 9.244 0 0 0 8.42.069 17.147 17.147 0 0 0 2.727-1.733v.975a5.05 5.05 0 0 0 2.55 4.238l2.284 1.21-5.432 5.476c.057.07.106.14.161.21.14.177.278.354.408.53.086.117.168.233.25.349q.15.214.29.427c.076.114.152.227.224.34q.21.334.4.662c.063.111.12.22.18.33.076.14.15.277.22.414.03.057.064.115.092.171l6.904-6.953 8.459 4.477c7.388 3.955 7.336 8.897 7.332 9.077C124 99.213 124 108 124 108a1.998 1.998 0 0 0 1.998 2zM15.314 42.396a2 2 0 0 0 2.893 1.373 37 37 0 0 1 13.547-3.75c.5-.022 3.8-.029 4.163-.014a26.76 26.76 0 0 1 3.92.433l-2.013-9.949A1.984 1.984 0 0 1 36.5 31H36v.5a2 2 0 0 1-4 0V31h-.5a2 2 0 0 1 0-4h.5v-.5a2 2 0 0 1 4 0v.5h.5a1.98 1.98 0 0 1 .64.114l-.02-.106a5.964 5.964 0 0 1 1.752-5.544 18.718 18.718 0 0 1 3.653-2.52 54.59 54.59 0 0 0-7.185-.94 1.992 1.992 0 0 0-.133-.004h-2.414a2.02 2.02 0 0 0-.133.005c-14.179.946-19.804 6.142-20.037 6.363a1.997 1.997 0 0 0-.583 1.847zM89.5 31a1.985 1.985 0 0 1-1.324-.511l-2.013 9.951a27.196 27.196 0 0 1 3.59-.421 161.82 161.82 0 0 1 4.164-.014 36.992 36.992 0 0 1 13.877 3.765 2 2 0 0 0 2.892-1.373l3.274-16.182a1.997 1.997 0 0 0-.583-1.847c-.232-.22-5.858-5.417-20.037-6.363a2.023 2.023 0 0 0-.133-.005h-2.414a2.02 2.02 0 0 0-.133.005 54.597 54.597 0 0 0-7.186.94 18.697 18.697 0 0 1 3.657 2.523 5.958 5.958 0 0 1 1.749 5.54l-.022.107A1.98 1.98 0 0 1 89.5 27h.5v-.5a2 2 0 0 1 4 0v.5h.5a2 2 0 0 1 0 4H94v.5a2 2 0 0 1-4 0V31z" fill="#2a8d86" class="color000000 svgShape"></path><path d="m41.04 26.215 3.274 16.181a2 2 0 0 0 2.893 1.373 37 37 0 0 1 13.547-3.75c.5-.022 3.8-.029 4.163-.014a36.992 36.992 0 0 1 13.877 3.764 2 2 0 0 0 2.892-1.373l3.274-16.181a1.997 1.997 0 0 0-.583-1.847c-.232-.22-5.858-5.417-20.037-6.363a2.023 2.023 0 0 0-.133-.005h-2.414a2.02 2.02 0 0 0-.133.005c-14.179.946-19.804 6.142-20.037 6.363a1.997 1.997 0 0 0-.583 1.847ZM60.5 27h.5v-.5a2 2 0 0 1 4 0v.5h.5a2 2 0 0 1 0 4H65v.5a2 2 0 0 1-4 0V31h-.5a2 2 0 0 1 0-4Z" fill="#2a8d86" class="color000000 svgShape"></path><path d="M94.999 108a1.999 1.999 0 1 0 3.998 0v-8.682c.021-.904-.133-7.766-9.45-12.753l-13.7-7.25c4.28-1.011 7.138-2.296 8.673-3.912a2.004 2.004 0 0 0 .463-.785c.072-.233 4.694-15.714-.622-28.825a5.981 5.981 0 0 1-7.43 1.517 33.154 33.154 0 0 0-12.142-3.307 61.3 61.3 0 0 0-1.147-.006c-1.033 0-2.387.005-2.72.018a33.115 33.115 0 0 0-11.858 3.297 5.967 5.967 0 0 1-7.668-1.84c-5.297 13.107-.222 28.512.008 29.193a1.978 1.978 0 0 0 .448.738c2.425 2.553 7.12 3.807 9.548 4.309l-12.959 6.857c-9.306 4.983-9.46 11.845-9.439 12.751V108a2 2 0 0 0 4 0L33 99.203c-.008-.209-.06-5.151 7.32-9.102l8.47-4.481 13.687 13.79a2.004 2.004 0 0 0 1.42.59h.206a2.008 2.008 0 0 0 1.42-.59l13.689-13.79 8.459 4.477c7.389 3.955 7.336 8.897 7.332 9.077-.004.039-.004.078-.004.117ZM50.088 53.197c10.359-.06 16.852-3.957 20.555-7.347.462.437.844.77.802.734A11.294 11.294 0 0 0 76 52.574c-.037 15.493-6.154 20.95-9.86 22.835a4.911 4.911 0 0 1-4.874-.107c-9.038-4.352-10.826-17.12-11.178-22.105ZM64 95.266 52.484 83.663l2.287-1.209a5.052 5.052 0 0 0 2.55-4.238v-.578a18.177 18.177 0 0 0 2.21 1.267A9.966 9.966 0 0 0 63.894 80a8.796 8.796 0 0 0 4.06-1.025 17.129 17.129 0 0 0 2.724-1.733v.975a5.05 5.05 0 0 0 2.55 4.238l2.286 1.21Z" fill="#2a8d86" class="color000000 svgShape"></path></svg>